{"title":"Austin Mahone Ft. Pitbull - MMM Yeah [Music Video] 1080p [Sbyky]","uid":9788941,"size":129008823,"categoryP":"video","categoryS":"music_videos","magnet":"?xt=urn:btih:1cdd25e0c72923bc673cb8a659985f718bfcfad3&amp;dn=Austin+Mahone+Ft.+Pitbull+-+MMM+Yeah+%5BMusic+Video%5D+1080p+%5BSbyky%5D&amp;tr=udp%3A%2F%2Ftracker.openbittorrent.com%3A80&amp;tr=udp%3A%2F%2Fopen.demonii.com%3A1337&amp;tr=udp%3A%2F%2Ftracker.coppersurfer.tk%3A6969&amp;tr=udp%3A%2F%2Fexodus.desync.com%3A6969","seeders":8,"leechers":0,"uploader":"Sbyky","files":1,"time":1395216973,"description":"\n\nGeneral\nComplete name                            : Austin Mahone Ft. Pitbull - MMM Yeah [Music Video] 1080p [Sbyky].MP4\nFormat                                   : MPEG-4\nFormat profile                           : Base Media\nCodec ID                                 : isom\nFile size                                : 123 MiB\nDuration                                 : 4mn 21s\nOverall bit rate mode                    : Variable\nOverall bit rate                         : 3 949 Kbps\nEncoded date                             : UTC 2014-03-11 15:02:33\nTagged date                              : UTC 2014-03-11 15:02:33\n\nVideo\nID                                       : 1\nFormat                                   : AVC\nFormat/Info                              : Advanced Video Codec\nFormat profile                           : &lt;a class=&quot;__cf_email__&quot; href=&quot;/cdn-cgi/l/email-protection&quot; data-cfemail=&quot;a4eccdc3cce4e8908a94&quot;&gt;[email&amp;#160;protected]&lt;/a&gt;&lt;script cf-hash='f9e31' type=&quot;text/javascript&quot;&gt;\n/* &lt;![CDATA[ */!function(){try{var t=&quot;currentScript&quot;in document?document.currentScript:function(){for(var t=document.getElementsByTagName(&quot;script&quot;),e=t.length;e--;)if(t[e].getAttribute(&quot;cf-hash&quot;))return t[e]}();if(t&amp;&amp;t.previousSibling){var e,r,n,i,c=t.previousSibling,a=c.getAttribute(&quot;data-cfemail&quot;);if(a){for(e=&quot;&quot;,r=parseInt(a.substr(0,2),16),n=2;a.length-n;n+=2)i=parseInt(a.substr(n,2),16)^r,e+=String.fromCharCode(i);e=document.createTextNode(e),c.parentNode.replaceChild(e,c)}}}catch(u){}}();/* ]]&gt; */&lt;/script&gt;\nFormat settings, CABAC                   : Yes\nFormat settings, ReFrames                : 2 frames\nCodec ID                                 : avc1\nCodec ID/Info                            : Advanced Video Coding\nDuration                                 : 4mn 21s\nDuration_LastFrame                       : -1ms\nBit rate                                 : 3 821 Kbps\nWidth                                    : 1 920 pixels\nHeight                                   : 1 080 pixels\nDisplay aspect ratio                     : 16:9\nFrame rate mode                          : Constant\nFrame rate                               : 23.976 fps\nColor space                              : YUV\nChroma subsampling                       : 4:2:0\nBit depth                                : 8 bits\nScan type                                : Progressive\nBits/(Pixel*Frame)                       : 0.077\nStream size                              : 119 MiB (97%)\nEncoded date                             : UTC 2014-03-11 15:02:33\nTagged date                              : UTC 2014-03-11 15:02:33\n\nAudio\nID                                       : 2\nFormat                                   : AAC\nFormat/Info                              : Advanced Audio Codec\nFormat profile                           : LC\nCodec ID                                 : 40\nDuration                                 : 4mn 21s\nBit rate mode                            : Variable\nBit rate                                 : 126 Kbps\nChannel(s)                               : 2 channels\nChannel positions                        : Front: L R\nSampling rate                            : 44.1 KHz\nCompression mode                         : Lossy\nStream size                              : 3.91 MiB (3%)\nEncoded date                             : UTC 2014-03-11 15:02:26\nTagged date                              : UTC 2014-03-11 15:02:26\n\nShared By Sbyky\n","torrent":{"xt":"urn:btih:1cdd25e0c72923bc673cb8a659985f718bfcfad3","amp;dn":"Austin+Mahone+Ft.+Pitbull+-+MMM+Yeah+%5BMusic+Video%5D+1080p+%5BSbyky%5D","amp;tr":["udp%3A%2F%2Ftracker.openbittorrent.com%3A80","udp%3A%2F%2Fopen.demonii.com%3A1337","udp%3A%2F%2Ftracker.coppersurfer.tk%3A6969","udp%3A%2F%2Fexodus.desync.com%3A6969"],"infoHash":"1cdd25e0c72923bc673cb8a659985f718bfcfad3","infoHashBuffer":{"type":"Buffer","data":[28,221,37,224,199,41,35,188,103,60,184,166,89,152,95,113,139,252,250,211]},"announce":[],"urlList":[]}}